/* XPM */
static char *result[] = {
/* columns rows colors chars-per-pixel */
"64 64 48 1 ",
"  c black",
". c #010101",
"X c #020202",
"o c gray1",
"O c #070606",
"+ c #0B1103",
"@ c #101010",
"# c #111111",
"$ c gray7",
"% c #131212",
"& c gray9",
"* c #171A13",
"= c #171917",
"- c #191F11",
"; c #181B18",
": c #1A2012",
"> c #1B2113",
", c #182417",
"< c #1A3417",
"1 c #2B3F18",
"2 c #333232",
"3 c #343333",
"4 c #343434",
"5 c #353434",
"6 c #353535",
"7 c #363434",
"8 c #363535",
"9 c #373535",
"0 c gray21",
"q c #1B4018",
"w c #34501A",
"e c #35501A",
"r c #37541C",
"t c #3D5F1D",
"y c #1F6E18",
"u c #41671E",
"i c #684A30",
"p c #694B31",
"a c #6A4C32",
"s c #6D4D31",
"d c #6D4D32",
"f c #4B7C21",
"g c #4C7C20",
"h c #4D7F20",
"j c #25A21A",
"k c #26B11A",
"l c #2AD01B",
"z c None",
/* pixels */
"zzzzzzzzzzzzzzzzzzzzzzzzzzzzzzzzzzzzzzzzzzzzzzzzzzzzzzzzzzzzzzzz",
"zzzzzzzzzzzzzzzzzzzzzzzzzzzzzzzzzzzzzzzzzzzzzzzzzzzzzzzzzzzzzzzz",
"zzzzzzzzzzzzzzzzzzzzzzzzzzzzzzzzzzzzzzzzzzzzzzzzzzzzzzzzzzzzzzzz",
"zzzzzzzzzzzzzzzzzzzzzzzzzzzzzzzzzzzzzzzzzzzzzzzzzzzzzzzzzzzzzzzz",
"zzzzzzzzzzzzzzzzzzzzzzzzz              zzzzzzzzzzzzzzzzzzzzzzzzz",
"zzzzzzzzzzzzzzzzzzzzzzz   7675588655679  zzzzzzzzzzzzzzzzzzzzzzz",
"zzzzzzzzzzzzzzzzzzzzz  685855455558556579  zzzzzzzzzzzzzzzzzzzzz",
"zzzzzzzzzzzzzzzzzzzzz 55555555555555858555   zzzzzzzzzzzzzzzzzzz",
"zzzzzzzzzzzzzzzzzzzz  5555888858555555858555   zzzzzzzzzzzzzzzzz",
"zzzzzzzzzzzzzzzzzzzz 5888588585858585555558888  zzzzzzzzzzzzzzzz",
"zzzzzzzzzzzzzzzzzzz  588858        558555588885  zzzzzzzzzzzzzzz",
"zzzzzzzzzzzzzzzzzzz 88588  ##$@@##   58555588888  zzzzzzzzzzzzzz",
"zzzzzzzzzzzzzzzzzz  8888 :>>#$$$$$$$   5855788888  zzzzzzzzzzzzz",
"zzzzzzzzzzzzzzzzzz 8888 :rur>$$$$*>>*$  85587788888 zzzzzzzzzzzz",
"zzzzzzzzzzzzzzzzzz 8888 +uhu>$$$*1tt1*$  58588788888 zzzzzzzzzzz",
"zzzzzzzzzzzzzzzzzz 8882      $##*wfge*$% 885887788888 zzzzzzzzzz",
"zzzzzzzzzzzzzzzzzz 88    $$$$$$$*1tt1*$$ 865888888885 zzzzzzzzzz",
"zzzzzzzzzzzzzzzzzz 8  $$$$$$$$$$$*>-*$$@ 885888888888 zzzzzzzzzz",
"zzzzzzzzzzzzzzzzz   $$$$$$$$$$$$$$$$$$$$ 88878 888888  zzzzzzzzz",
"zzzzzzzzzzzzzzzzz $$$$$$$$$$$$$$$$$#$$$# 88888  888885 zzzzzzzzz",
"zzzzzzzzzzzzzzzz $$$$$$$$$$$$$$$$$$$$$$$ 88888     88 zzzzzzzzzz",
"zzzzzzzzzzzzzzz  $$$$$$$$$$$$$$$$$$#$$$# 88888 zzz    zzzzzzzzzz",
"zzzzzzzzzzzzzz  $$$$$$$$$$$$$$$$#$$$$$$$ 8888  zzzzzzzzzzzzzzzzz",
"zzzzzzzzzzzzzz $$$$$$$$$$$$$$$$$$$$$$$$  8888 zzzzzzzzzzzzzzzzzz",
"zzzzzzzzzzzzz  $$$$$$$$$$$$$$$$$$$$$$$# 8888  zzzzzzzzzzzzzzzzzz",
"zzzzzzzzzzzzz $$$$$$$$$$$      $$$$$$#  8888 zzzzzzzzzzzzzzzzzzz",
"zzzzzzzzzzzzz $$$$$$$$    O o##$@$##o  8888  zzzzzzzzzzzzzzzzzzz",
"zzzzzzzzzzzz  $$$$$$   885            8888  zzzzzzzzzzzzzzzzzzzz",
"zzzzzzzzzzzz $$$$$    88888  X.Xo   888888 zzzzzzzzzzzzzzzzzzzzz",
"zzzzzzzzzzzz $$$$  zzz  8888      3888888  zzzzzzzzzzzzzzzzzzzzz",
"zzzzzzzzzzzz $$$ zzzzzz  888888888888888  zzzzzzzzzzzzzzzzzzzzzz",
"zzzzzzzzzzzz $$ zzzzzzzz  8888888888880 zzzzzzzzzzzzzzzzzzzzzzzz",
"zzzzzzzzzzzz $ zzzzzzzzzz 888888888888  zzzzzzzzzzzzzzzzzzzzzzzz",
"zzzzzzzzzzzz  zzzzzzzz    888788888888  zzzzzzzzzzzzzzzzzzzzzzzz",
"zzzzzzzzzzzzzzzzzzzzz  8888888888888888 zzzzzzzzzzzzzzzzzzzzzzzz",
"zzzzzzzzzzzzzzzzzzzz  58888888888888888  zzzzzzzzzzzzzzzzzzzzzzz",
"zzzzzz    zzzzzzzzz  8888888888888888888 zzzzzzzzzzzzzzzzzzzzzzz",
"zzzzz dssd  zzzzzz  87888588888888888888  zzzzzzzzzzzzzzzzzzzzzz",
"zzzz sssssp  zzz   5888888888888888888888 zzzzzzzzzzzzzzzzzzzzzz",
"zzzz sssssa 8    588555858888888888888888  zzzzzzzzzzzzzzzzzzzzz",
"zzzz  s s p 88888555588588888888888 888888 zzzzzzzzzzzzzzzzzzzzz",
"zzz   i s    88558858 8588888888888 888888  zzzzzzzzzzzzzzzzzzzz",
"zzz        & 88885858 8588888888888 8888888 zzzzzzzzzzzzzzzzzzzz",
"zzz ,qyyyq,= 5888585  5888888888888 8888888 zzzzzzzzzzzzzzzzzzzz",
"zzz <yjkjy<; 5888555 88888888888888 8888 88  zzzzzzzzzzzzzzzzzzz",
"zzz <yklky<; 655588  88888888888888 8888 888 zzzzzzzzzzzzzzzzzzz",
"zzz <yjkjy<; 55885  888888888888888 8888  88  zzzzzzzzzzzzzzzzzz",
"zzz ,qyyyq,= 8588   888888888888888 88888 888 zzzzzzzzzzzzzzzzzz",
"zzz ;,<<<,;& 885   8888888888888888 88888  88  zzzzzzzzzzzzzzzzz",
"zzz &=;;;=&  88  z 8888888888888888 888888 888 zzzzzzzzzzzzzzzzz",
"zzzz        65  z  8888888888888888 8888888 88 zzzzzzzzzzzzzzzzz",
"zzzzzzzzzzz    zz 8888888888888888 88888888  88 zzzzzzzzzzzzzzzz",
"zzzzzzzzzzzzzzzz  8888888888888888 888888888 88 zzzzzzzzzzzzzzzz",
"zzzzzzzzzzzzzzzz 88888888888888888  88888888  8  zzzzzzzzzzzzzzz",
"zzzzzzzzzzzzzzz  888888888888888888     88888 88 zzzzzzzzzzzzzzz",
"zzzzzzzzzzzzzzz 88888888888888888888888       88 zzzzzzzzzzzzzzz",
"zzzzzzzzzzzzzz  8888888888888888888888888888  888 zzzzzzzzzzzzzz",
"zzzzzzzzzzzzzz 8888888888888888888888888888888888 zzzzzzzzzzzzzz",
"zzzzzzzzzzzzz 88888888888888888888888888888888888  zzzzzzzzzzzzz",
"zzzzzzzzzzzzz 888888888888888888888888888888888888 zzzzzzzzzzzzz",
"zzzzzzzzzzzz  888888888888888888888888888888888888  zzzzzzzzzzzz",
"zzzzzzzzzzzz 88888888888888888888888888888888888888 zzzzzzzzzzzz",
"zzzzzzzzzzz  888888888888888888888888888888888888888 zzzzzzzzzzz",
"zzzzzzzzzzz                                           zzzzzzzzzz"
};
