/* XPM */
static char *result[] = {
/* columns rows colors chars-per-pixel */
"64 64 48 1 ",
"  c black",
". c #010101",
"X c #020202",
"o c gray1",
"O c #070606",
"+ c #0B1103",
"@ c #101010",
"# c #111111",
"$ c gray7",
"% c #131212",
"& c gray9",
"* c #171A13",
"= c #171917",
"- c #191F11",
"; c #181B18",
": c #1A2012",
"> c #1B2113",
", c #182417",
"< c #1A3417",
"1 c #2B3F18",
"2 c #333232",
"3 c #343333",
"4 c #343434",
"5 c #353434",
"6 c #353535",
"7 c #363434",
"8 c #363535",
"9 c #373535",
"0 c gray21",
"q c #1B4018",
"w c #34501A",
"e c #35501A",
"r c #37541C",
"t c #3D5F1D",
"y c #1F6E18",
"u c #41671E",
"i c #684A30",
"p c #694B31",
"a c #6A4C32",
"s c #6D4D31",
"d c #6D4D32",
"f c #4B7C21",
"g c #4C7C20",
"h c #4D7F20",
"j c #25A21A",
"k c #26B11A",
"l c #2AD01B",
"z c None",
/* pixels */
"zzzzzzzzzzzzzzzzzzzzzzzzzzzzzzzzzzzzzzzzzzzzzzzzzzzzzzzzzzzzzzzz",
"zzzzzzzzzzzzzzzzzzzzzzzzzzzzzzzzzzzzzzzzzzzzzzzzzzzzzzzzzzzzzzzz",
"zzzzzzzzzzzzzzzzzzzzzzzzzzzzzzzzzzzzzzzzzzzzzzzzzzzzzzzzzzzzzzzz",
"zzzzzzzzzzzzzzzzzzzzzzzzzzzzzzzzzzzzzzzzzzzzzzzzzzzzzzzzzzzzzzzz",
"zzzzzzzzzzzzzzzzzzzzzzzzz              zzzzzzzzzzzzzzzzzzzzzzzzz",
"zzzzzzzzzzzzzzzzzzzzzzz  9765568855767   zzzzzzzzzzzzzzzzzzzzzzz",
"zzzzzzzzzzzzzzzzzzzzz  975655855554558586  zzzzzzzzzzzzzzzzzzzzz",
"zzzzzzzzzzzzzzzzzzz   55585855555555555555 zzzzzzzzzzzzzzzzzzzzz",
"zzzzzzzzzzzzzzzzz   5558585555558588885555  zzzzzzzzzzzzzzzzzzzz",
"zzzzzzzzzzzzzzzz  8888555555858585858858885 zzzzzzzzzzzzzzzzzzzz",
"zzzzzzzzzzzzzzz  588885555855        858885  zzzzzzzzzzzzzzzzzzz",
"zzzzzzzzzzzzzz  88888555585   ##@@$##  88588 zzzzzzzzzzzzzzzzzzz",
"zzzzzzzzzzzzz  8888875585   $$$$$$$#>>: 8888  zzzzzzzzzzzzzzzzzz",
"zzzzzzzzzzzz 88888778558  $*>>*$$$$>rur: 8888 zzzzzzzzzzzzzzzzzz",
"zzzzzzzzzzz 88888788585  $*1tt1*$$$>uhu+ 8888 zzzzzzzzzzzzzzzzzz",
"zzzzzzzzzz 888887788588 %$*egfw*##$      2888 zzzzzzzzzzzzzzzzzz",
"zzzzzzzzzz 588888888568 $$*1tt1*$$$$$$$    88 zzzzzzzzzzzzzzzzzz",
"zzzzzzzzzz 888888888588 @$$*->*$$$$$$$$$$$  8 zzzzzzzzzzzzzzzzzz",
"zzzzzzzzz  888888 87888 $$$$$$$$$$$$$$$$$$$$   zzzzzzzzzzzzzzzzz",
"zzzzzzzzz 588888  88888 #$$$#$$$$$$$$$$$$$$$$$ zzzzzzzzzzzzzzzzz",
"zzzzzzzzzz 88     88888 $$$$$$$$$$$$$$$$$$$$$$$ zzzzzzzzzzzzzzzz",
"zzzzzzzzzz    zzz 88888 #$$$#$$$$$$$$$$$$$$$$$$  zzzzzzzzzzzzzzz",
"zzzzzzzzzzzzzzzzz  8888 $$$$$$$#$$$$$$$$$$$$$$$$  zzzzzzzzzzzzzz",
"zzzzzzzzzzzzzzzzzz 8888  $$$$$$$$$$$$$$$$$$$$$$$$ zzzzzzzzzzzzzz",
"zzzzzzzzzzzzzzzzzz  8888 #$$$$$$$$$$$$$$$$$$$$$$$  zzzzzzzzzzzzz",
"zzzzzzzzzzzzzzzzzzz 8888  #$$$$$$      $$$$$$$$$$$ zzzzzzzzzzzzz",
"zzzzzzzzzzzzzzzzzzz  8888  o##$@$##o O    $$$$$$$$ zzzzzzzzzzzzz",
"zzzzzzzzzzzzzzzzzzzz  8888            588   $$$$$$  zzzzzzzzzzzz",
"zzzzzzzzzzzzzzzzzzzzz 888888   oX.X  88888    $$$$$ zzzzzzzzzzzz",
"zzzzzzzzzzzzzzzzzzzzz  8888883      8888  zzz  $$$$ zzzzzzzzzzzz",
"zzzzzzzzzzzzzzzzzzzzzz  888888888888888  zzzzzz $$$ zzzzzzzzzzzz",
"zzzzzzzzzzzzzzzzzzzzzzzz 0888888888888  zzzzzzzz $$ zzzzzzzzzzzz",
"zzzzzzzzzzzzzzzzzzzzzzzz  888888888888 zzzzzzzzzz $ zzzzzzzzzzzz",
"zzzzzzzzzzzzzzzzzzzzzzzz  888888887888    zzzzzzzz  zzzzzzzzzzzz",
"zzzzzzzzzzzzzzzzzzzzzzzz 8888888888888888  zzzzzzzzzzzzzzzzzzzzz",
"zzzzzzzzzzzzzzzzzzzzzzz  88888888888888885  zzzzzzzzzzzzzzzzzzzz",
"zzzzzzzzzzzzzzzzzzzzzzz 8888888888888888888  zzzzzzzzz    zzzzzz",
"zzzzzzzzzzzzzzzzzzzzzz  88888888888888588878  zzzzzz  dssd zzzzz",
"zzzzzzzzzzzzzzzzzzzzzz 8888888888888888888885   zzz  psssss zzzz",
"zzzzzzzzzzzzzzzzzzzzz  888888888888888858555885    8 asssss zzzz",
"zzzzzzzzzzzzzzzzzzzzz 888888 88888888888588555588888 p s s  zzzz",
"zzzzzzzzzzzzzzzzzzzz  888888 8888888888858 85885588    s i   zzz",
"zzzzzzzzzzzzzzzzzzzz 8888888 8888888888858 85858888 &        zzz",
"zzzzzzzzzzzzzzzzzzzz 8888888 8888888888885  5858885 =,qyyyq, zzz",
"zzzzzzzzzzzzzzzzzzz  88 8888 88888888888888 5558885 ;<yjkjy< zzz",
"zzzzzzzzzzzzzzzzzzz 888 8888 88888888888888  885556 ;<yklky< zzz",
"zzzzzzzzzzzzzzzzzz  88  8888 888888888888888  58855 ;<yjkjy< zzz",
"zzzzzzzzzzzzzzzzzz 888 88888 888888888888888   8858 =,qyyyq, zzz",
"zzzzzzzzzzzzzzzzz  88  88888 8888888888888888   588 &;,<<<,; zzz",
"zzzzzzzzzzzzzzzzz 888 888888 8888888888888888 z  88  &=;;;=& zzz",
"zzzzzzzzzzzzzzzzz 88 8888888 8888888888888888  z  56        zzzz",
"zzzzzzzzzzzzzzzz 88  88888888 8888888888888888 zz    zzzzzzzzzzz",
"zzzzzzzzzzzzzzzz 88 888888888 8888888888888888  zzzzzzzzzzzzzzzz",
"zzzzzzzzzzzzzzz  8  88888888  88888888888888888 zzzzzzzzzzzzzzzz",
"zzzzzzzzzzzzzzz 88 88888     888888888888888888  zzzzzzzzzzzzzzz",
"zzzzzzzzzzzzzzz 88       88888888888888888888888 zzzzzzzzzzzzzzz",
"zzzzzzzzzzzzzz 888  8888888888888888888888888888  zzzzzzzzzzzzzz",
"zzzzzzzzzzzzzz 8888888888888888888888888888888888 zzzzzzzzzzzzzz",
"zzzzzzzzzzzzz  88888888888888888888888888888888888 zzzzzzzzzzzzz",
"zzzzzzzzzzzzz 888888888888888888888888888888888888 zzzzzzzzzzzzz",
"zzzzzzzzzzzz  888888888888888888888888888888888888  zzzzzzzzzzzz",
"zzzzzzzzzzzz 88888888888888888888888888888888888888 zzzzzzzzzzzz",
"zzzzzzzzzzz 888888888888888888888888888888888888888  zzzzzzzzzzz",
"zzzzzzzzzz                                           zzzzzzzzzzz"
};
