/* XPM */
static char *result[] = {
/* columns rows colors chars-per-pixel */
"64 64 177 2 ",
"   c #3C3739",
".  c #1B4225",
"X  c #1F4329",
"o  c #23442D",
"O  c #274530",
"+  c #2B4534",
"@  c #2D4836",
"#  c #2F4438",
"$  c #2F4938",
"%  c #33453C",
"&  c #38463F",
"*  c #34493C",
"=  c #463743",
"-  c #4B3949",
";  c #513A4F",
":  c #583E54",
">  c #5C3C5A",
",  c #653E63",
"<  c #693C67",
"1  c #6C3D6A",
"2  c #753E73",
"3  c #374440",
"4  c #3C4544",
"5  c #374A40",
"6  c #3C4944",
"7  c #3E4748",
"8  c #3F4948",
"9  c #3F5043",
"0  c #404447",
"q  c #404B47",
"w  c #44454B",
"e  c #4E474B",
"r  c #444B4C",
"t  c #4C4848",
"y  c #405043",
"u  c #4D4653",
"i  c #4B4B53",
"p  c #554655",
"a  c #514C56",
"s  c #53465A",
"d  c #5C4459",
"f  c #544C5B",
"g  c #5A4B5D",
"h  c #545752",
"j  c #56505D",
"k  c #59515F",
"l  c #5D5A5A",
"z  c #61505E",
"x  c #615B5E",
"c  c #5D4763",
"v  c #5D4B63",
"b  c #5D5164",
"n  c #634361",
"m  c #634B66",
"M  c #654B6B",
"N  c #6A4B6E",
"B  c #70426E",
"V  c #655A62",
"C  c #695966",
"Z  c #65516B",
"A  c #6B556B",
"S  c #6C596A",
"D  c #71576E",
"F  c #70596E",
"G  c #6D4C72",
"H  c #724671",
"J  c #714A75",
"K  c #784875",
"L  c #7D437C",
"P  c #754C7A",
"I  c #7A4B7C",
"U  c #6D5173",
"Y  c #745674",
"T  c #785676",
"R  c #755973",
"E  c #795876",
"W  c #745179",
"Q  c #7C557C",
"!  c #7C587B",
"~  c #AF2941",
"^  c #B12C46",
"/  c #B12C4A",
"(  c #B22F50",
")  c #B23055",
"_  c #80407F",
"`  c #81567F",
"'  c #7D4C82",
"]  c #7D5282",
"[  c #7D5881",
"{  c #854283",
"}  c #824C85",
"|  c #8C438B",
" . c #854C89",
".. c #8A4C8D",
"X. c #91448F",
"o. c #90488F",
"O. c #835384",
"+. c #885586",
"@. c #825A85",
"#. c #855289",
"$. c #8B538B",
"%. c #875A8A",
"&. c #8C5B8E",
"*. c #91548F",
"=. c #8D4C91",
"-. c #934492",
";. c #934D95",
":. c #984997",
">. c #9A459A",
",. c #964D99",
"<. c #9B4D9D",
"1. c #8E5391",
"2. c #8F5C90",
"3. c #935394",
"4. c #995097",
"5. c #935B94",
"6. c #965299",
"7. c #9B539C",
"8. c #975898",
"9. c #9C5C9C",
"0. c #A04B9F",
"q. c #A0529F",
"w. c #986098",
"e. c #9E4DA0",
"r. c #9E52A1",
"t. c #A546A5",
"y. c #A24DA4",
"u. c #AA47AB",
"i. c #A64FA8",
"p. c #AC4DAC",
"a. c #B04EAF",
"s. c #A352A4",
"d. c #A55CA4",
"f. c #A751A9",
"g. c #AB52AC",
"h. c #AC5BAC",
"j. c #B05BAF",
"k. c #AF4EB1",
"l. c #B34EB3",
"z. c #B74DB8",
"x. c #BA4EBB",
"c. c #AE53B0",
"v. c #B353B4",
"b. c #B45CB4",
"n. c #B85CB7",
"m. c #B751B8",
"M. c #BB53BC",
"N. c #BB5CBB",
"B. c #AB60AB",
"V. c #B360B3",
"C. c #BD61BD",
"Z. c #BF53C0",
"A. c #BF5BC0",
"S. c #C155C2",
"D. c #C35BC4",
"F. c #C75DC8",
"G. c #C95EC9",
"H. c #C463C4",
"J. c #C668C6",
"K. c #C763C8",
"L. c #CA64CB",
"P. c #C76AC8",
"I. c #CC6BCD",
"U. c #CE71CF",
"Y. c #CF6DD0",
"T. c #D06ED1",
"R. c #CF72D0",
"E. c #D174D2",
"W. c #D47CD4",
"Q. c #D683D6",
"!. c #D785D8",
"~. c #D886D8",
"^. c #D788D8",
"/. c #DA8CDA",
"(. c #DD94DD",
"). c #DE9ADE",
"_. c #E09AE0",
/* pixels */
". . . . o . . o o O @ * * 6 r g M W ] ] W W U W ! @.&.2.w.9.d.b.v.j.d.q.5.2.%.@.[ [ #. .O.U Z b i 9 8 5 $ @ @ o X X X X . . . . ",
". . X . . . o o + $ * 6 q i g A ] 3.r.7.1.$.%.2.5.w.w.9.d./.W.Y.F.n.j.h.B.9.w.w.8.8.s.d.7.#.W A b b a r 5 5 @ @ O o X X X . . . ",
". . . X . X o + # & q r a v Z W  .s.M.g.7.8.r.9.d.B.B.B.j.b.b.N.Y.N.n.j.B.B.B.B.d.h.v.M.g.1.[ Q W U b b r 9 5 @ @ o X X X . . . ",
"X . X . o o O $ * r i v Z G W ] 1.s.g.g.h.d.B.B.B.V.V.V.b.b.N.N.E.N.n.n.(.V.j.V.j.b.b.n.c.r.1.#.#.] [ Z b r 5 5 @ O O X X X X . ",
". . X X X o + * 8 i b ' ] #.' #.3.s.d.h.h.j.V.b.V.b.b.C.C.N.C.A.^.C.C.(.(.C.V.V.b.b.b.b.j.d.q.8.r.r.r.[ Z f 8 5 $ O O o o X . . ",
". X X X o O $ 6 r b P 1.r.r.6.1.7.d.h.h.b.b.b.n.C.).C.H.H.H.C.(.H.H.H.(.H.C.C.H.N.V.n.b.b.B.h.q.f.Z.r.] U b i 8 5 $ @ o o X X X ",
"X X X o O + * q a Z ] r.M.f.7.r.d.h.j.b.n.V.C.C.H.).J.J.J.J.J.(.H.P.P.(.J.P.H.H.(.(.(.C.b.j.j.j.j.c.r...] b j r 9 5 @ O o o X X ",
". X o o @ * 6 i v J #.r.f.f.r.d.h.b.b.(.N.H.H.H.H.).).P.P.U.I.).U.U.I._.P.P.P.).).H.C.C.C.V.b.j.h.r.r.%.[ U Z v i 9 5 @ O o X X ",
"X X o + $ 6 r v Z W ] 6.6.r.h.j.j.n.n.A._._.H.P.I.P.).).U.U.E.).U.E.U._.U.U.U.).P.P.H.C.C.(.n.n.j.B.r.1.] ] W U k i 8 5 @ O o X ",
"X X + @ 6 8 v G P ] ..1.r.d.h.v.n.n.C.H.H.H._._.).U.U.).R.W.W.).E.E.W.E.).E.U.).U.P.P.P.J.(.C.n.V.B.^.r.6.6.] [ Z k 8 6 $ O o o ",
"X O + 3 8 f M ] ..1.=.6.r.h.b.N.).N.H.H.H.I.I.U.R.).).E.).W.E.).W.W.W.W.).E.E.).U.U.U.P.J.(.C.C.n.n.^.d.r.f.r.r.[ Z i 8 $ @ O o ",
"X O @ 3 i v ] ,.r.f.r.r.h.c.b.A.).).).L.Y.U.U.E.E.W.).Q.Q.).Q.~.).Q.Q.Q.).W.Q.).W.U.E.).).J.J.H.C.V.(.h.B.c.Z.r.] U j 8 5 @ O o ",
"o O $ 8 i M ' s.M.f.r.f.c.b.N.A.H.H.L.).).R.R.W.Q.Q.Q.).~.~.).^.).^.^.Q.).Q.Q.).W.W.).).U.P.J.J.C.C.(.b.h.c.c.r.[ [ b 8 5 $ O O ",
"O + 3 r v U #.r.g.f.c.h.b.A.(._.).).).U.R.).).W.Q.Q.Q.Q.).~.)./.)././.).).^.).).Q.W.).E.U.U.I.J.P.A./.A.b.f.r.6.] U b j 9 5 @ O ",
"O $ 6 i m P #.,.r.r.c.m.N.(.H.H.L.I.R.).).Q.).).).^././.).(.).(.).)./.)././.).~.^.).Q.W.W.U.I.P.H.H.(.V.V.h.r.6.#.] Z j 9 5 @ O ",
"+ % 7 f M ]  .,.r.f.h.m.(.A.H.H.P.U.R.E.E.).).~.^.).).(./.).).(.(.).(.).(.(.)./.^.).Q.W.W.E.E.).).).(.C.n.B.r.6.] ] U b i 9 5 @ ",
"@ 4 u v P ..6.r.r.f.v.(.N.F.H.L.I.I.R.W.W.Q.^.).~.(.)._.(.).).(.(.(.(.(.(.(._./.)./.Q.Q.).).).R.I.K.H.A.A.j.r.r.1.] [ U j 8 6 $ ",
"$ 6 i M ] e.f.i.f.c./.N.A.K.K.I.I.E.W.W.Q.Q.~./.).(.(._._.).).(._.).).).)._.(.(.)./.^.).Q.W.W.R.U.P.H.H.A.b.j.r.r.6.#.] b a 6 5 ",
"* 4 a M ] s.Z.c.g.^.M.N.D.K.L.Y.U.E.W.Q.~.~./.(.(.).).).).).).).).).).(.).).(.(.).(.(./.Q.Q.)._.).).).).(.(.b.f.c.f.r.#.U f 7 5 ",
"* 7 s M  .e.k.g.c.~.n.Z.D.H.L.I.E.E.W.Q.^.~./.(.(.(._.).).)._.).).).).).).).).(.)./.)./.^.(.W.R.E.I.P.K.A.A.b.c.c.Z.f.] U f 8 5 ",
"5 7 s N ' ,.,.r.g.m.N.D.F.K.I.I.R.W.W.Q.).)./.(.).).).)._.).).).)._._.)._.).).(.(._.(.).).Q.Q.W.E.U.I.H.H.A.b.c.c.c.i.1.U v r 5 ",
"3 7 a M P ..,.r.g.n.N.A.H.).)._._.).).).).(.)._.).).).)._.)._.).).).).).).).).).).).(.).~.^.Q.W.E.R.I.K.H.A.A.c.f.r.6.] G v r 5 ",
"5 3 f c P  .=.e.g.m.N.D.).L.I.Y.E.W.Q.~././.(.(.).).).).).)._._.).).).)._._.).).(.).(././.^.Q.).).).).).H.A.A.h.r.r.1.] M v i 5 ",
"3 7 s c ' ' =.e.g.M.M.).).L.I.E.R.Q.Q.^./.(.(.).).)._.).)._._.)._._._._._._.(.).).(.(.(.).).(.Q.E.R.I.).(./.(.c.r.e...] U v i 6 ",
"4 7 v N '  .o.e.c.M.Z.D.F.L.I._.)._.).^./.(.).).).).).).).)._._.)._.).)._.).).).).).).)./.~.Q.W.E.R.I.I.K.A.N.c.f.r.1.] G v i 7 ",
"4 w c G  .=.,.e.k.M.A.D.H.L.).E.W.W.)._./.).).).).).).)._.).).).).)._._.)._.).).).(.(.(./.^.Q.Q.W.R.I.L.D.D.N.b.k.r.e. .P v i 7 ",
"4 u M P =.,.e.i.v.M.A.F.H._.)._.E.W.~.~.).).(.(.).).).)._.).).).).).)._._.).)._.(.).).).).).).).).).(.).(.A.A.m.m.c.i.6.' M a 7 ",
"7 s N  .e.i.k.f.c.M.Z.D.).L.I.T.).W.~.Q././.(.).).).).).).).).).).)._.)._.).).).).(.(.(./.~.Q.W.E.E.I.I.D.(.N.m.m.Z.c.=.W c i 8 ",
"7 u N ' i.x.k.i.c.M.A.).F.L.I.E.W.).Q.~./.(.(.).).).).).).).).).).).).)._._.).).).).).).).)._.W.E.E.I.L.H././.m.m.c.f.1.P m a 7 ",
"8 s N } e.p.k.i.p.M.M.).F.L.L.T.E.E.).).^./.).).).(.(.).)._.)._.).).).)._._.).).).).(./.~.~.)._.E.R.I.L.F.A.N.c.k.s.e. .P v i 8 ",
"6 u v P ..,.e.e.i.M.M.(.K.K._._.).).Q.Q.).).).(.(.).).)._._.).).).).).).).).).).(.(.(.(.~.~.W._.).Y.I.K.F.A.N.c.s.e.=.#.G v i 6 ",
"3 w v N '  .,.e.i.M.).D.F.F.L.Y.R.).).).).).).).).).).).).).).).).).).).).).).).(.(./.)._._.W.E.E.).).).).Z.M.c.e.,.=.' G v i 6 ",
"3 7 u c J ' =.,.y.m.(.A.D.F.L.Y.Y.E.W.Q.Q./././._.(.(.(.).).)._.).).).).(.).).)._._.).).!.).).W.Y.I.L.F.D.A.m.p.e.<.=. .G v i 4 ",
"3 4 u s < '  .,.0.(.M.Z.A._._.L.Y.E.E.W.Q.!.)._./.).(.).).).)._.).).).).).(.(.(.(./.~.^.).)._._.I.L.H.F.D.N.n.p.y.<.6.=.P m i 7 ",
"O 3 w s c ' } -.<.(.M.M.Z._.F.).(.).).)._._._././.).(.).(.).(.(.).).).(.)._.(././.~.!.Q.W.).E.T.).H.F.F.Z.M.v.f.s.f.f.<.' M u 6 ",
"+ 3 7 u c G  .:.<.a.m.M.Z._.F.L.L.I.E.E.E.W.Q.~.)./.)./.(._.(.(.(.).(.(.(._./.)._.!.Q.W.W.).U.Y.P.).).D.N.n.v.y.y.p.M.e.' M u 4 ",
"  3 5 7 c P } ,.t.l.m.M.M.).D.F.L.L.T.T.E.E.Q.Q.).)././.)./.(./._._./.(.(.)./.~.~._._._.E.E._.L.L.G.).).).v.c.0.e.i.y.,.I v i 3 ",
"X 3 3 u c P =.y.a.n.m.m.M.(.D.D.G.L.L.T.U.E.W._.~.).~._._./././.)././.).(.).^._.Q.Q.W._.E.T.L._.F.F.S.N.M.v.c.,.;.=. .' N s w % ",
"o 3 3 7 s H  .f.Z.m.v.z./.(.Z.D.F.G.L.Y.Y.Y.).W.).Q.Q.).~.~.~._.^.^.~.).Q.~.Q.).W.E.E._.Y.I.L._.D.D.N.M.v.c.g.;. .' P G v u 4 + ",
"o + 3 7 s N } 0.f.v.a.l.(.x.x.D.D.F.G.L._._.E.).).E.).W.Q.Q.).Q.!.Q.Q.).Q.W.Q.).E.E.E._.L.L.H.F._.Z.M.M.v.f.f.#.' P N c u 7 % + ",
".   3 3 7 c ' ' =.f.g.a.a.n.M.Z.S.S.F.(.K.L.Y.).T._.E.E.W._.W.W.W.W._.W.W.W.).E.E.T.I._.L.K.F.D.).).).(.(.g.s.} ' N c u 7 3 # O ",
". X O 3 7 s c ' } 7.y.i.p.l.m.M.Z.D.F._.G.K._.L.Y._.U.E.R._.W.E.E.W._.E.E.E.).T.I.L.L._.F.D.D.S.M.M.m.l.g.i.s. .P M v u 7 # O O ",
". X O 3 3 w s c G 4.7.0.u.a.l.z.x.Z.S.(.F._._.L._.I.Y.Y.E.).E.T.T.T._.E.T.T._.L.K.L.K._.F.D.S.M.M.M.c.c.p.g.s...L M s 7 3 o O X ",
"X X O O 3 3 w s n *.7.s.f.g.l.v.x.x.M.D.Z._.F.G._.G.G.G.L.).I.I.Y.T._.L.L.L._.G.G.F.F.F.).S.M.M.m.c.c.a.g.c.v.7.' m ; 7 $   O X ",
". X X O   3 3 7 s %.5.q.g.g.l.l.a.z.z.m.Z._.S.D._.G.G.G.G._.L.L.K.L.(.L.L.G._.(.F.F.S.S.).M.m.x.l.l.g.g.g.v.M.0.' c i 3 + O o X ",
". X X X X + 3 7 e +.3.q.g.v.v.a.p.u.l.l.z._.Z.Z.(.S.F.F.F._.G.G.F.F._.G.F.F.F./.S.S.M.x.z.l.l.v.l.v.c.g.g.g.g.3.J c 7 3 + o X . ",
". . X X X O # 3 w ` *.7.a.Z.v.g.t.t.u.l.v._.x.M.S.S.Z.Z.S._.S.S.S.F././.S.S.S.Z./.S.x.z.l.u.a.z.m.v.v.g.s.7.6.' c u 7 # O X X . ",
". . X . X X   3 0 E +.8.g.c.g.p.0.>.t.a.l.(.x.x.x.x.x.Z.S.(.(.S.S.S.S.~.S.Z.Z.Z.x.M.x.l.p.t.t.a.v.Z.v.q.7.3.1.c s 7 3 + o X . . ",
". . . . X X O 3 3 U [ %.8.7.7.7.:.X.>.0.p.g.a.x.x.M.x.x.M.M./.x.x.S.S.x.Z.x.M.x.M.z.l.a.p.t.0.f.a.v.h.q.*.+.` a 0 % + O X . . . ",
". . . . . . O O $ A R [ +.$.*.3.| _ o.7.0.i.a.l.M.x.x.z.x.M.M.z.x.x.x.S.Z.x.x.x.M.M.v.p.y.-.X.q.q.q.4.*.+.` E 0 % + X . X . . . ",
". . . . . . . X O S F R E ` ` O.` 2 _ ;.:.q.q.a.x.Z.z.a.c.l.a.a.u.x.M.S.x.l.z.x.S.x.a.s.:.| { 5.*.+.+.` ` D F # + o   . . . . . ",
". . . . . . . . o Z S S F D R E H 1 B 2 _ | -.0.u.a.a.a.p.f.p.t.t.a.z.x.x.u.a.a.a.a.0.X._ _ L +.` ` ` ` F D C + o X . . . . . . ",
". . . . . . . . o x V C C C F F m > , H _ _ _ | 0.y.f.q.q.f.0.-.>.0.u.a.i.0.0.0.0.>.| _ L L ` Q ` R R F C C x o . . . . . . . . ",
". . . . . . . . . x x x C C C C z ; m E ` ` +._ { X.4.7.4.:.4.| | >.0.0.:.X.-.q.:.*.*.+.` Q Y Y F S S S C x x . . . . . . . . . ",
". . . . . . . . . x l x x V V C p / g ) R ) ` ` 2 2 ` *.+.+.*._ _ +.*.*.} _ _ $.$.` ` ! T D D S C C x S x x x . . . . . . . . . ",
". . . . . . . . . l x l x x x V p / ^ / ) ) R E B n , K ` ` ` B < _ ` ` K < K ` Q E E R D S C C x C x x x x x o . . . . . . . . ",
". . . . . . . . . l l l l l l x t ~ ^ ^ ^ ( F F D : : d R R R z > H ` R z d n R F F F C S C V V x x x l l l l . . . . . . . . . ",
". . . . . . . . . l l l l l l l t   ~ ~ ^ C x C C z - - d S F d ; z F F d - d S C C C C V x V x x l x l l l l . . . . . . . . . ",
". . . . . . . . . l l l l l l l t   t X x x x C x C p = = x V e = z x C p = p x V V x x x x x x x x l l l l l . . . . . . . . . ",
". . . . . . . . . l l l l l l l x x . . x x x x x x x x C x V V x C C x x C x C V x x x x x x x l l l l l l l . . . . . . . . . ",
". . . . . . . . . l l l l l . . l l . l . . . . x x x x x x x x x x x x x V x x x l x x l . . l x l l l l l l . . . . . . . . . ",
". . . . . . . . . h l l l l l . . h . . . l x l x x x x x x x x x x x x x x x l l l l l . . l l l l l l l l h . . . . . . . . . ",
". . . . . . . . . & l l l l l l . . . . l l l l l l l l l l x l x l x l l . . . . l l . . l . . . . l l l l o . . . . . . . . . ",
". . . . . . . . . o h l l l h l l . . l l l l l l l l l l l l l l l l l l l l l h . . . . . l l l l l l l y . . . . . . . . . . "
};
