/* XPM */
static char *result[] = {
/* columns rows colors chars-per-pixel */
"64 64 106 2 ",
"   c #383535",
".  c #3A3737",
"X  c #3B3838",
"o  c #3C3939",
"O  c #3D3A3A",
"+  c #3E3A3A",
"@  c #3F3B3B",
"#  c #413E3E",
"$  c #423F3F",
"%  c #433F3F",
"&  c #1A4224",
"*  c #1B4225",
"=  c #1D4326",
"-  c #1E4327",
";  c #204428",
":  c #214429",
">  c #204529",
",  c #21452A",
"<  c #22452A",
"1  c #22452B",
"2  c #23452B",
"3  c #23462C",
"4  c #26462D",
"5  c #294730",
"6  c #2B4831",
"7  c #2C4933",
"8  c #324A37",
"9  c #324B37",
"0  c #354C3A",
"q  c #364C3A",
"w  c #384D3D",
"e  c #3A4E3E",
"r  c #3F4F41",
"t  c #3F4F42",
"y  c #3F5043",
"u  c #434040",
"i  c #444141",
"p  c #454242",
"a  c #464343",
"s  c #464444",
"d  c #474444",
"f  c #484545",
"g  c #484646",
"h  c #494646",
"j  c #4A4646",
"k  c #4A4747",
"l  c #4B4747",
"z  c #4B4848",
"x  c #4B4949",
"c  c #4C4949",
"v  c #4D4949",
"b  c #4C4A4A",
"n  c #4D4A4A",
"m  c #4D4B4B",
"M  c #4E4B4B",
"N  c #504D4D",
"B  c #514E4E",
"V  c #524E4E",
"C  c #405043",
"Z  c #425145",
"A  c #435145",
"S  c #475248",
"D  c #485349",
"F  c #4A534B",
"G  c #4D544C",
"H  c #4D544D",
"J  c #4E544D",
"K  c #4F544D",
"L  c #4E554E",
"P  c #525050",
"I  c #545050",
"U  c #545151",
"Y  c #555252",
"T  c #555353",
"R  c #565252",
"E  c #525651",
"W  c #535651",
"Q  c #535752",
"!  c #545652",
"~  c #545753",
"^  c #565753",
"/  c #565454",
"(  c #575454",
")  c #565754",
"_  c #575755",
"`  c #595555",
"'  c #585656",
"]  c #595757",
"[  c #5A5757",
"{  c #565854",
"}  c #565855",
"|  c #575855",
" . c #595856",
".. c #595957",
"X. c #5A5957",
"o. c #5B5958",
"O. c #5B5959",
"+. c #5B5A58",
"@. c #5C5959",
"#. c #5C5A59",
"$. c #5D5A59",
"%. c #5C5A5A",
"&. c #5D5A5A",
"*. c #5D5B5A",
"=. c #5D5B5B",
"-. c #AE283C",
/* pixels */
"& & & & & & & & & & & & & & & & & & & & & & = 3 9 e Z D G G G G G G G G D Z e 9 3 = & & & & & & & & & & & & & & & & & & & & & & ",
"& & & & & & & & & & & & & & & & & & & * , 5 8 r F E ) ..X.o.o.o.o.o.o.X...) E F r 8 5 , * & & & & & & & & & & & & & & & & & & & ",
"& & & & & & & & & & & & & & & & & & - 4 0 A G _  .o.#.#.#.*.*.*.*.*.*.#.#.#.o. ._ G A 0 4 - & & & & & & & & & & & & & & & & & & ",
"& & & & & & & & & & & & & & & & * : 7 t L } +.O.#.#.&.&.&.&.&.&.&.&.&.&.&.&.#.#.O.+.} L t 7 : * & & & & & & & & & & & & & & & & ",
"& & & & & & & & & & & & & & & & 1 q S W ..O.#.&.&.&.&.&.&.&.&.&.&.&.&.&.&.&.&.&.&.#.O...W S q 1 & & & & & & & & & & & & & & & & ",
"& & & & & & & & & & & & & & & 2 w L | o.#.&.&.&.&.&.&.&.&.&.&.&.&.&.&.&.&.&.&.&.&.&.&.#.o.| L w 2 & & & & & & & & & & & & & & & ",
"& & & & & & & & & & & & & & 2 w H X.#.*.&.&.&.&.&.&.&.&.&.&.&.&.&.&.&.&.&.&.&.&.&.&.&.&.*.#.X.H w 2 & & & & & & & & & & & & & & ",
"& & & & & & & & & & & & * 1 w H ..%.*.&.&.&.&.&.&.&.&.&.&.&.&.&.&.&.&.&.&.&.&.&.&.&.&.&.&.*.%...H w 1 * & & & & & & & & & & & & ",
"& & & & & & & & & & & & : q L X.%.@.&.&.&.&.&.&.&.&.&.&.&.&.&.&.&.&.&.&.&.&.&.&.&.&.&.&.&.&.@.%.X.L q : & & & & & & & & & & & & ",
"& & & & & & & & & & & - 7 S | #.*.&.&.&.&.&.&.&.&.&.&.&.&.&.&.&.&.&.&.&.&.&.&.&.&.&.&.&.&.&.&.*.#.| S 7 - & & & & & & & & & & & ",
"& & & & & & & & & & * 4 t W o.*.&.&.&.&.&.&.&.&.&.&.&.&.&.&.&.&.&.&.&.&.&.&.&.&.&.&.&.&.&.&.&.&.*.o.W t 4 * & & & & & & & & & & ",
"& & & & & & & & & & , 0 L ..#.&.&.&.&.&.&.&.&.&.&.&.&.&.&.          &.&.&.&.&.&.&.&.&.&.&.&.&.&.&.#...L 0 , & & & & & & & & & & ",
"& & & & & & & & & & 5 A } O.&.&.&.&.&.&.&.&.&.&.&.&.&.&.&.          &.&.&.&.&.&.&.&.&.&.&.&.&.&.&.&.O.} A 5 & & & & & & & & & & ",
"& & & & & & & & & = 8 G +.#.&.&.&.&.&.&.&.&.&.&.&.&.&.&.&.          &.&.&.&.&.&.&.&.&.&.&.&.&.&.&.&.#.+.G 8 = & & & & & & & & & ",
"& & & & & & & & & 3 r _ O.&.&.&.&.&.&.&.&.&.&.&.&.&.&.&.&.          &.&.&.&.&.&.&.&.&.&.&.&.&.&.&.&.&.O._ r 3 & & & & & & & & & ",
"& & & & & & & & * 9 F  .#.&.&.&.&.&.&.&.&.&.&.&.&.&.&.&.&.          &.&.&.&.&.&.&.&.&.&.&.&.&.&.&.&.&.#. .F 9 * & & & & & & & & ",
"& & & & & & & & = e E o.#.&.&.&.&.&.&.&.&.&.&.&.&.&.&.&.&.          &.&.&.&.&.&.&.&.&.&.&.&.&.&.&.&.&.#.o.E e = & & & & & & & & ",
"& & & & & & & & < Z ) #.&.&.&.&.&.&.&.&.&.&.&.&.&.&.&.&.&.          &.&.&.&.&.&.&.&.&.&.&.&.&.&.&.&.&.&.#.) Z < & & & & & & & & ",
"& & & & & & & & 6 D ..#.&.&.&.&.&.&.&.&.&.&.&.&.&.&.&.&.&.          &.&.&.&.&.&.&.&.&.&.&.&.&.&.&.&.&.&.#...D 6 & & & & & & & & ",
"& & & & & & & & 9 G X.#.&.&.&.&.                                                              &.&.&.&.&.#.X.G 9 & & & & & & & & ",
"& & & & & & & & 9 G o.*.&.&.&.&.                                                              &.&.&.&.&.*.o.G 9 & & & & & & & & ",
"& & & & & & & & 9 G o.*.&.&.&.&.                                                              &.&.&.&.&.*.o.G 9 & & & & & & & & ",
"& & & & & & & & 9 G o.=.&.&.&.&.                                                              &.&.&.&.&.&.o.G 9 & & & & & & & & ",
"& & & & & & & & 9 K &.&.&.&.&.&.                                                              &.&.&.&.&.&.$.J 9 & & & & & & & & ",
"& & & & & & & & 9 { &.&.&.&.&.&.&.&.&.&.&.&.&.&.&.&.&.&.&.          &.&.&.&.&.&.&.&.&.&.&.&.&.&.&.&.&.&.&.&.^ 9 & & & & & & & & ",
"& & & & & & & & 9 +.&.&.&.&.&.&.&.&.&.&.&.&.&.&.&.&.&.&.&.          &.&.&.&.&.&.&.&.&.&.&.&.&.&.&.&.&.&.&.&.o.9 & & & & & & & & ",
"& & & & & & & & 9 &.&.&.&.&.&.&.&.&.&.&.&.&.&.&.&.&.&.&.&.          &.&.&.&.&.&.&.&.&.&.&.&.&.&.&.&.&.&.&.&.&.9 & & & & & & & & ",
"& & & & & & & & 6 &.&.&.&.&.&.&.&.&.&.&.&.&.&.&.&.&.&.&.&.          &.&.&.&.&.&.&.&.&.&.&.&.&.&.&.&.&.&.&.&.&.6 & & & & & & & & ",
"& & & & & & & & < &.&.&.&.&.&.&.&.&.&.&.&.&.&.&.&.&.&.&.&.          &.&.&.&.&.&.&.&.&.&.&.&.&.&.&.&.&.&.&.&.&.< & & & & & & & & ",
"& & & & & & & & = &.&.&.&.&.&.&.&.&.&.&.&.&.&.&.&.&.&.&.&.          &.&.&.&.&.&.&.&.&.&.&.&.&.&.&.&.&.&.&.&.&.= & & & & & & & & ",
"& & & & & & & & * &.&.&.&.&.&.&.&.&.&.&.&.&.&.&.&.&.&.&.&.          &.&.&.&.&.&.&.&.&.&.&.&.&.&.&.&.&.&.&.&.&.* & & & & & & & & ",
"& & & & & & & & & &.&.&.&.&.&.&.&.&.&.&.&.&.&.&.&.&.&.&.&.          &.&.&.&.&.&.&.&.&.&.&.&.&.&.&.&.&.&.&.&.&.& & & & & & & & & ",
"& & & & & & & & & &.&.&.&.&.&.&.&.&.&.&.&.&.&.&.&.&.&.&.&.          &.&.&.&.&.&.&.&.&.&.&.&.&.&.&.&.&.&.&.&.&.& & & & & & & & & ",
"& & & & & & & & & &.&.&.&.&.&.&.&.&.&.&.&.&.&.&.&.&.&.&.&.          &.&.&.&.&.&.&.&.&.&.&.&.&.&.&.&.&.&.&.&.&.& & & & & & & & & ",
"& & & & & & & & & &.&.&.&.&.&.&.&.&.&.&.&.&.&.&.&.&.&.&.&.          &.&.&.&.&.&.&.&.&.&.&.&.&.&.&.&.&.&.&.&.&.& & & & & & & & & ",
"& & & & & & & & & &.&.&.&.&.&.&.&.&.&.&.&.&.&.&.&.&.&.&.&.          &.&.&.&.&.&.&.&.&.&.&.&.&.&.&.&.&.&.&.&.&.& & & & & & & & & ",
"& & & & & & & & & &.&.&.&.&.&.&.&.&.&.&.&.&.&.&.&.&.&.&.&.          &.&.&.&.&.&.&.&.&.&.&.&.&.&.&.&.&.&.&.&.&.& & & & & & & & & ",
"& & & & & & & & & &.&.&.&.&.&.&.&.&.&.&.&.&.&.&.&.&.&.&.&.          &.&.&.&.&.&.&.&.&.&.&.&.&.&.&.&.&.&.&.&.&.& & & & & & & & & ",
"& & & & & & & & & &.&.&.&.&.&.&.&.&.&.&.&.&.&.&.&.&.&.&.&.          &.&.&.&.&.&.&.&.&.&.&.&.&.&.&.&.&.&.&.&.&.& & & & & & & & & ",
"& & & & & & & & & &.&.&.&.&.&.&.&.&.&.&.&.&.&.&.&.&.&.&.&.          &.&.&.&.&.&.&.&.&.&.&.&.&.&.&.&.&.&.&.&.&.& & & & & & & & & ",
"& & & & & & & & & &.&.&.&.&.&.&.&.&.&.&.&.&.&.&.&.&.&.&.&.          &.&.&.&.&.&.&.&.&.&.&.&.&.&.&.&.&.&.&.&.&.& & & & & & & & & ",
"& & & & & & & & & &.&.&.&.&.&.&.&.&.&.&.&.&.&.&.&.&.&.&.&.          &.&.&.&.&.&.&.&.&.&.&.&.&.&.&.&.&.&.&.&.&.& & & & & & & & & ",
"& & & & & & & & & &.&.&.&.&.&.&.&.&.&.&.&.&.&.&.&.&.&.&.&.          &.&.&.&.&.&.&.&.&.&.&.&.&.&.&.&.&.&.&.&.&.& & & & & & & & & ",
"& & & & & & & & & &.&.&.&.&.&.&.&.&.&.&.&.&.&.&.&.&.&.&.&.&.&.&.&.&.&.&.&.&.&.&.&.&.&.&.&.&.&.&.&.&.&.&.&.&.&.& & & & & & & & & ",
"& & & & & & & & & &.&.&.&.&.&.&.I l l l l l l x M U @.&.&.&.&.N l / &.&.P l l l l l z v P &.&.&.&.&.&.&.&.&.&.& & & & & & & & & ",
"& & & & & & & & & &.&.&.&.&.&.&.k                   p @.&.&.&.$   N &.&.h                 X R &.&.&.&.&.&.&.&.& & & & & & & & & ",
"& & & & & & & & & &.&.&.&.&.&.&.k   i U U U U V j     f &.&.&.$   N &.&.h   u N N N N b .   X &.&.&.&.&.&.&.&.& & & & & & & & & ",
"& & & & & & & & & &.&.&.&.&.&.&.k   h &.&.&.&.&.&.z   o &.&.&.$   N &.&.h   k &.&.&.&.&.]     &.&.&.&.&.&.&.&.& & & & & & & & & ",
"& & & & & & & & & &.&.&.&.&.&.&.k   h &.&.&.&.&.&./     [ &.&.$   N &.&.h   k &.&.&.&.&.&.u   &.&.&.&.&.&.&.&.& & & & & & & & & ",
"& & & & & & & & & &.&.&.&.&.&.&.k   h &.&.&.&.&.&.n     @.&.&.$   N &.&.h   k &.&.&.&.&.@.X   &.&.&.&.&.&.&.&.& & & & & & & & & ",
"& & & & & & & & & &.&.&.&.&.&.&.k   p T T T Y N g     j &.&.&.$   N &.&.h   k &.&.&.&.&.v     &.&.&.&.&.&.&.&.& & & & & & & & & ",
"& & & & & & & & & &.&.&.&.&.&.&.k                   x @.&.&.&.$   N &.&.h   o u u u # X     p &.&.&.&.&.&.&.&.& & & & & & & & & ",
"& & & & & & & & & &.&.&.&.&.&.&.k   + a s %     O ` &.&.&.&.&.$   N &.&.h               o m &.&.&.&.&.&.&.&.&.& & & & & & & & & ",
"& & & & & & & & & &.&.&.&.&.&.&.k   h &.&.&./ .   p &.&.&.&.&.$   N &.&.h   d ( ( ( ' @.&.&.&.&.&.&.&.&.&.&.&.& & & & & & & & & ",
"& & & & & & & & & &.&.&.&.&.&.&.k -.h -.&.-.&.U     x &.&.&.&.$   N &.&.h   k &.&.&.&.&.&.&.&.&.&.&.&.&.&.&.&.& & & & & & & & & ",
"& & & & & & & & & &.&.&.&.&.&.&.k -.-.-.-.-.&.&.j     T &.&.&.$   N &.&.h   k &.&.&.&.&.&.&.&.&.&.&.&.&.&.&.&.& & & & & & & & & ",
"& & & & & & & & & &.&.&.&.&.&.&.k -.-.-.-.-.&.&.@.+   @ @.&.&.$   N &.&.h   k &.&.&.&.&.&.&.&.&.&.&.&.&.&.&.&.& & & & & & & & & ",
"& & & & & & & & & &.&.&.&.&.&.&.k   -.-.-.&.&.&.&.U     c &.&.$   N &.&.h   k &.&.&.&.&.&.&.&.&.&.&.&.&.&.&.&.& & & & & & & & & ",
"& & & & & & & & & &.&.&.&.&.&.&.l   h & &.&.&.&.&.&.d     ' &.u   B &.&.h   l &.&.&.&.&.&.&.&.&.&.&.&.&.&.&.&.& & & & & & & & & ",
"& & & & & & & & & &.&.&.&.&.&.&.&.&.& & &.&.&.&.&.&.&.&.&.&.&.&.&.&.&.&.&.&.&.&.&.&.&.&.&.&.&.&.&.&.&.&.&.&.&.& & & & & & & & & ",
"& & & & & & & & & &.&.&.&.&.& & &.&.& &.& & & & &.&.&.&.&.&.&.&.&.&.&.&.&.&.&.&.&.&.&.&.&.& & &.&.&.&.&.&.&.@.& & & & & & & & & ",
"& & & & & & & & & ~ &.&.&.&.&.& & &.& & & &.&.&.&.&.&.&.&.&.&.&.&.&.&.&.&.&.&.&.&.&.&.&.& & &.&.&.&.&.&.&.&.! & & & & & & & & & ",
"& & & & & & & & & C &.&.&.&.&.&.& & & & &.&.&.&.&.&.&.&.&.&.&.&.&.&.&.&.&.& & & & &.&.& & &.& & & & &.&.&.&.y & & & & & & & & & ",
"& & & & & & & & & > Q &.&.&.&.&.&.& & &.&.&.&.&.&.&.&.&.&.&.&.&.&.&.&.&.&.&.&.&.&.& & & & & &.&.&.&.&.&.&.Q ; & & & & & & & & & "
};
