/* XPM */
static char *result[] = {
/* columns rows colors chars-per-pixel */
"64 64 208 2 ",
"   c black",
".  c #010001",
"X  c #010102",
"o  c #020103",
"O  c #020202",
"+  c gray1",
"@  c #030104",
"#  c #040206",
"$  c #06030A",
"%  c #07040B",
"&  c #08050B",
"*  c #09050D",
"=  c #09050E",
"-  c #0A050F",
";  c gray3",
":  c #0B0A0B",
">  c #0B0B0B",
",  c #0A080C",
"<  c #0A0610",
"1  c #0E0816",
"2  c #100818",
"3  c #100918",
"4  c #11091A",
"5  c #111011",
"6  c #17131B",
"7  c #191919",
"8  c gray12",
"9  c #180D25",
"0  c #190D26",
"q  c #181221",
"w  c #1E1B23",
"e  c #221331",
"r  c #221234",
"t  c #231335",
"y  c #251438",
"u  c #251439",
"i  c #272628",
"p  c #2A2332",
"a  c #363537",
"s  c #6E3F1F",
"d  c #663A39",
"f  c #6F4117",
"g  c #6F4018",
"h  c #6F4118",
"j  c #6F4019",
"k  c #6F4218",
"l  c #704016",
"z  c #714017",
"x  c #704117",
"c  c #714117",
"v  c #704217",
"b  c #704018",
"n  c #714018",
"m  c #704118",
"M  c #714118",
"N  c #704019",
"B  c #714019",
"V  c #704119",
"C  c #714119",
"Z  c #724118",
"A  c #704218",
"S  c #714218",
"D  c #704219",
"F  c #2F1947",
"G  c #2F1948",
"H  c #301A4A",
"J  c #311A4A",
"K  c #331B4D",
"L  c #341C4F",
"P  c #332642",
"I  c #46266B",
"U  c #47266C",
"Y  c #47266D",
"T  c #49276F",
"R  c #582F69",
"E  c #4E2777",
"W  c #4B2872",
"Q  c #4C2974",
"!  c #4E2778",
"~  c #4F2778",
"^  c #4E2679",
"/  c #4E2779",
"(  c #4F2779",
")  c #4F277A",
"_  c #4E2878",
"`  c #4F2878",
"'  c #4F2978",
"]  c #4F2879",
"[  c #4F2979",
"{  c #4F2A79",
"}  c #4F2B79",
"|  c #4F287A",
" . c #4F297A",
".. c #4F297B",
"X. c #562F70",
"o. c #502779",
"O. c #50277A",
"+. c #502878",
"@. c #502978",
"#. c #502879",
"$. c #502979",
"%. c #502A79",
"&. c #50287A",
"*. c #51287A",
"=. c #50297A",
"-. c #50297B",
";. c #51297B",
":. c #52297A",
">. c #502A7A",
",. c #512B7A",
"<. c #502A7B",
"1. c #512B7B",
"2. c #522A7A",
"3. c #522A7B",
"4. c #532B7B",
"5. c #532C79",
"6. c #502C7B",
"7. c #512C7B",
"8. c #522C7A",
"9. c #532D7B",
"0. c #542D7A",
"q. c #52297D",
"w. c #512A7C",
"e. c #502B7C",
"r. c #512B7C",
"t. c #502B7D",
"y. c #522A7C",
"u. c #522B7C",
"i. c #532B7C",
"p. c #522B7D",
"a. c #532B7D",
"s. c #522A7E",
"d. c #532B7E",
"f. c #512C7C",
"g. c #512D7C",
"h. c #512C7D",
"j. c #512D7D",
"k. c #522C7C",
"l. c #532C7C",
"z. c #522D7C",
"x. c #522C7D",
"c. c #532C7D",
"v. c #522D7D",
"b. c #532D7D",
"n. c #532E7D",
"m. c #522C7E",
"M. c #532C7E",
"N. c #532D7F",
"B. c #542D7D",
"V. c #55307E",
"C. c #55317E",
"Z. c #5C3B7F",
"A. c #4B4B4B",
"S. c #515151",
"D. c #565656",
"F. c #5D5D5D",
"G. c #606060",
"H. c #626262",
"J. c #6D6D6D",
"K. c #7D7D7E",
"L. c #A10008",
"P. c #EBD127",
"I. c #613E87",
"U. c #735494",
"Y. c #909090",
"T. c gray57",
"R. c #929292",
"E. c #939393",
"W. c gray58",
"Q. c gray60",
"!. c #9D9D9D",
"~. c #A09FA1",
"^. c #A5A5A5",
"/. c gray65",
"(. c gray70",
"). c gray72",
"_. c #BCBCBC",
"`. c gray75",
"'. c #C1C1C1",
"]. c #C3C2C3",
"[. c gray78",
"{. c #C8C7C8",
"}. c #CDCDCD",
"|. c #D7D7D7",
" X c gray86",
".X c #DDDDDD",
"XX c #E1E1E1",
"oX c #E2E2E2",
"OX c #E4E4E4",
"+X c #E9E9E9",
"@X c gray92",
"#X c gray93",
"$X c #EEEEEE",
"%X c #EFEFEF",
"&X c #F1F1F1",
"*X c gray95",
"=X c #F3F3F3",
"-X c #F4F4F4",
";X c gray96",
":X c #F8F8F8",
">X c #F9F9F9",
",X c gray98",
"<X c #FBFBFB",
"1X c gray99",
"2X c #FDFDFD",
"3X c #FEFEFE",
"4X c white",
"5X c None",
/* pixels */
"5X5X5X5X5X5X5X5X5X5X5X5X5X5X5X5X5X5X5X5X5X5X5X5X5X5X5X5X5X5X5X5X5X5X5X5X5X5X5X5X5X5X5X5X5X5X5X5X5X5X5X5X5X5X5X5X5X5X5X5X5X5X5X5X",
"5X5X5X5X5X5X5X5X5X5X5X5X5X5X5X5X5X5X5X5X5X5X5X5X5X5X5X5X5X5X5X5X5X5X5X5X5X5X5X5X5X5X5X5X5X5X5X5X5X5X5X5X5X5X5X5X5X5X5X5X5X5X5X5X",
"5X5X5X5X5X5X5X5X5X5X5X5X5X5X5X5X5X5X5X5X5X5X5X5X5X5X5X5X5X5X5X5X5X5X5X5X5X5X5X5X5X5X5X5X5X5X5X5X5X5X5X5X5X5X5X5X5X5X5X5X5X5X5X5X",
"5X5X5X5X5X5X5X5X5X5X5X5X5X5X5X5X5X5X5X5X5X5X5X5X5X5X5X5X5X5X5X5X    5X5X5X5X5X5X5X5X5X5X5X5X5X5X5X5X5X5X5X5X5X5X5X5X5X5X5X5X5X5X",
"5X5X5X5X5X5X5X5X5X5X5X5X5X5X5X5X5X5X5X5X5X5X5X5X5X5X5X5X5X            5X5X5X5X5X5X5X5X5X5X5X5X5X5X5X5X5X5X5X5X5X5X5X5X5X5X5X5X5X",
"5X5X5X5X5X5X5X5X5X5X5X5X5X5X5X5X5X5X5X5X5X5X5X5X5X5X5X        V l c   5X5X5X5X5X5X5X5X5X5X5X5X5X5X5X5X5X5X5X5X5X5X5X5X5X5X5X5X5X",
"5X5X5X5X5X5X5X5X5X5X5X5X5X5X5X5X5X5X5X5X5X5X5X5X5X    T.T.T.    V x     5X5X5X5X5X5X5X5X5X5X5X5X5X5X5X5X5X5X5X5X5X5X5X5X5X5X5X5X",
"5X5X5X5X5X5X5X5X5X5X5X5X5X5X5X5X5X5X5X5X5X5X5X      T.T.                  5X5X5X5X5X5X5X5X5X5X5X5X5X5X5X5X5X5X5X5X5X5X5X5X5X5X5X",
"5X5X5X5X5X5X5X5X5X5X5X5X5X5X5X5X5X5X5X5X5X              =.=.=.V.b.0.X.R       5X5X5X5X5X5X5X5X5X5X5X5X5X5X5X5X5X5X5X5X5X5X5X5X5X",
"5X5X5X5X5X5X5X5X5X5X5X5X5X5X5X5X5X5X      ;.6.x.x.x.x.z.n.x.b.x.x.l.l.8.9.u.      5X5X5X5X5X5X5X5X5X5X5X5X5X5X5X5X5X5X5X5X5X5X5X",
"5X5X5X5X5X5X5X5X5X5X5X5X5X5X5X5X5X    f.a.u.y.i.B.x.x.x.x.x.$.` ~ +.+.~ ] &.x.x.    5X5X5X5X5X5X5X5X5X5X5X5X5X5X5X5X5X5X5X5X5X5X",
"5X5X5X5X5X5X5X5X5X5X5X5X5X5X5X5X    t.e.2.` >.r.<.` / o.( =.$.` ! ` ` ! ( $.! ( ..    5X5X5X5X5X5X5X5X5X5X5X5X5X5X5X5X5X5X5X5X5X",
"5X5X5X5X5X5X5X5X5X5X5X5X5X5X5X    w.a.<.,.z.7.{ ( &.~ ~ ] =.=.=.=.=.=.=.=.` ! ( ) |     5X5X5X5X5X5X5X5X5X5X5X5X5X5X5X5X5X5X5X5X",
"5X5X5X5X5X5X5X5X5X5X5X5X5X      *.y.s.d.w.e.[ O.( E =.=.=.=.=.=.=.=.=.=.=.=.=.` ( ( |   5X5X5X5X5X5X5X5X5X5X5X5X5X5X5X5X5X5X5X5X",
"5X5X5X5X5X5X5X5X5X5X5X5X    c.q.-.u.>.3.=.] ( ) ` =.=.=.=.=.=.4X4X4X4X3XI.=.=.=.! ( ( )   5X5X5X5X5X5X5X5X5X5X5X5X5X5X5X5X5X5X5X",
"5X5X5X5X5X5X5X5X5X5X5X    a. .w.#.4.    ' ( ( _ =.=.=.b.4X4X4X4X4X4X4X4X4X4X=.=.=._ ~ o.    5X5X5X5X5X5X5X5X5X5X5X5X5X5X5X5X5X5X",
"5X5X5X5X5X5X5X5X5X5X5X  u.:._ [         ! ( ` =.=.=.&X4X4X4X4X4X4X4X4X4X4X4X4XU.k.=.! ( ^   5X5X5X5X5X5X5X5X5X5X5X5X5X5X5X5X5X5X",
"5X5X5X5X5X5X5X5X5X5X5X  >.        T.  @.o.( =.=.=. X2X4X4X4X4X4X4X4X4X4X4X4X4X2XOX=.=.~ ~   5X5X5X5X5X5X5X5X5X5X5X5X5X5X5X5X5X5X",
"5X5X5X5X5X5X5X5X5X5X5X      5XT.E.T.  @.` %.=.=.~.$X3X4X4X4X4X4X4X4X4X4X4X4X4X3X-X{.=.=.x.  5X5X5X5X5X5X5X5X5X5X5X5X5X5X5X5X5X5X",
"5X5X5X5X5X5X5X5X5X5X5X    5XT.T.E.  x.C.x.x.=.P ].>X    L.P.P.  4X4X4X    L.P.P.  %X0 x.x.  5X5X5X5X5X5X5X5X5X5X5X5X5X5X5X5X5X5X",
"5X5X5X5X5X5X5X5X5X5X5X  5XY.T.R.T.  x.b.x.=.{ p }.1X    L.L.L.  4X4X4X    L.L.L.  <X= x.x.    5X5X5X5X5X5X5X5X5X5X5X5X5X5X5X5X5X",
"5X5X5X5X5X5X5X5X5X5X    Y.T.T.T.T.  x.x.x.=.Q w `.:X            4X4X4X            @Xo x.x.k.  5X5X5X5X5X5X5X5X5X5X5X5X5X5X5X5X5X",
"5X5X5X5X5X5X5X5X5X    5XY.T.T.T.T.  x.m.x.=.Q 6 Q.#X3X4X4X4X4X4X4X4X4X4X4X4X4X4X=X'.o x.x.x.  5X5X5X5X5X5X5X5X5X5X5X5X5X5X5X5X5X",
"5X5X5X5X5X5X5X5X    T.Y.T.R.T.T.T.  x.x.=.x.{ q H.|.1X4X4X4X4X4X4X4X4X4X4X4X4X2XoXK.= x.x.k.  5X5X5X5X5X5X5X5X5X5X5X5X5X5X5X5X5X",
"5X5X5X5X5X5X5X    T.E.T.T.T.T.T.T.  x.b.=.x.} e i ^.$X4X4X4X4X4X4X  4X4X4X4X4X*X(.a 9 x.x.x.  5X5X5X5X5X5X5X5X5X5X5X5X5X5X5X5X5X",
"5X5X5X5X5X5X    T.R.R.T.T.T.T.T.T.  x.C.=.x.1.L & S._.&X3X4X4X4X4X4X4X4X4X4X;X[.F., G x.x.k.  5X5X5X5X5X5X5X5X5X5X5X5X5X5X5X5X5X",
"5X5X5X5X5X5X  T.T.R.T.T.T.T.T.T.T.  x.=.x.x.x.T 4 : G.).@X1X4X4X4X4X4X4X2X%X'.J.5 3 U x.x.5.  5X5X5X5X5X5X5X5X5X5X5X5X5X5X5X5X5X",
"5X5X5X5X5X    R.T.T.T.T.T.T.T.T.R.  x.=.x.x.x.f.K < ; A.!..X,X4X4X4X4X1XoX/.D.> * J 1.x.M.    5X5X5X5X5X5X5X5X5X5X5X5X5X5X5X5X5X",
"5X5X5X5X    R.R.R.T.T.T.T.T.T.T.R.    Z.x.x.x.x.x.u % O 7   +X  4X  4X  4X8 + $ r 1.x.x.        5X5X5X5X5X5X5X5X5X5X5X5X5X5X5X5X",
"5X5X5X5X  Y.R.T.T.T.T.T.T.T.T.T.T.5X  =.=.N.x.x.x.Q y - .   XX  4X  4X  4X. * t W x.x.    d B     5X5X5X5X5X5X5X5X5X5X5X5X5X5X5X",
"5X5X5X    T.R.T.T.T.T.T.T.R.R.T.R.        h.N.x.x.x.x.K 2 # @ X     X @ # 1 H 1.x.x.M.  5Xs N b   5X5X5X5X5X5X5X5X5X5X5X5X5X5X5X",
"5X5X    R.T.T.T.T.T.T.T.T.R.T.      5X5X    x.M.x.x.x.1.Y H 0 = X X = 9 F I 1.x.x.M.      5Xv x   5X5X5X5X5X5X5X5X5X5X5X5X5X5X5X",
"5X    T.T.T.T.T.T.T.R.T.R.      5X5X5X5X5X    c.M.x.x.x.x.x.x.x.x.x.x.x.x.x.x.x.M.    5X    m m S   5X5X5X5X5X5X5X5X5X5X5X5X5X5X",
"5X  T.R.T.T.T.T.T.T.T.T.    5X5X5X5X5X5X5X5X    x.M.x.x.x.x.x.x.x.x.x.x.x.x.x.M.    5X5X5X  5XM m     5X5X5X5X5X5X5X5X5X5X5X5X5X",
"    T.T.T.T.T.T.R.T.    5X5X5X5X5X5X5X5X5X5X5X    f.k.M.m.x.x.x.x.x.x.x.m.M.v.    5X5X5X5X    C m m   5X5X5X5X5X5X5X5X5X5X5X5X5X",
"  5XY.T.T.T.T.R.T.    5X5X5X5X5X5X5X5X5X5X5X5X5X  c.x.x.x.k.x.x.x.x.x.x.x.x.c.  5X5X5X5X5X5X    x m     5X5X5X5X5X5X5X5X5X5X5X5X",
"  Y.Y.T.T.T.T.T.    5X5X5X5X5X5X5X5X5X5X5X5X5X    x.x.p.x.x.h.x.x.p.x.p.x.x.x.u.  5X5X5X5X5X5X  m A n       5X5X5X5X5X5X5X5X5X5X",
"  E.T.R.T.T.T.    5X5X5X5X5X5X5X5X5X5X5X5X5X5X  x.x.x.x.x.x.x.x.x.x.x.x.x.x.x.x.x.    5X5X5X5X  5Xm   4X4X    5X5X5X5X5X5X5X5X5X",
"  W.R.T.T.T.    5X5X5X5X5X5X5X5X5X5X5X5X5X5X  x.x.x.x.x.x.x.x.x.x.x.x.x.x.x.x.x.x.x.      5X5X5X    4X4X4X4X  5X5X5X5X5X5X5X5X5X",
"  E.R.T.    5X5X5X5X5X5X5X5X5X5X5X5X5X5X5X    x.x.x.x.x.x.x.x.x.x.x.x.x.x.x.x.x.x.x.x.x.          4X4X  4X4X4X  5X5X5X5X5X5X5X5X",
"  E.R.    5X5X5X5X5X5X5X5X5X5X5X5X5X5X5X5X  x.x.x.x.x.x.x.x.x.x.x.x.x.x.x.x.x.x.x.x.x.x.x.x.x.x.  4X  4X4X  4X  5X5X5X5X5X5X5X5X",
"  E.    5X5X5X5X5X5X5X5X5X5X5X5X5X5X5X5X    x.x.x.x.x.  x.x.x.x.x.x.x.x.x.x.x.x.x.x.x.x.x.x.x.x.x.  4X4X  4X4X  5X5X5X5X5X5X5X5X",
"  T.  5X5X5X5X5X5X5X5X5X5X5X5X5X5X5X5X    x.x.x.x.x.x.  x.x.x.x.x.x.x.x.x.x.x.x.x.x.x.x.x.x.x.x.x.x.    4X4X    5X5X5X5X5X5X5X5X",
"      5X5X5X5X5X5X5X5X5X5X5X5X5X5X5X5X  x.x.x.x.x.x.x.  x.x.x.x.x.x.x.x.x.x.x.x.x.x.x.x.x.x.x.x.x.x.x.x.    m   5X5X5X5X5X5X5X5X",
"    5X5X5X5X5X5X5X5X5X5X5X5X5X5X5X5X    x.x.x.x.x.x.x.    x.x.x.x.x.x.x.x.x.x.x.x.x.x.x.  x.x.x.x.x.x.x.  j m     5X5X5X5X5X5X5X",
"  5X5X5X5X5X5X5X5X5X5X5X5X5X5X5X5X5X  x.x.    x.x.x.x.x.  x.x.x.x.x.x.x.x.x.x.x.x.x.x.x.x.  x.x.x.x.x.x.  c m b     5X5X5X5X5X5X",
"  5X5X5X5X5X5X5X5X5X5X5X5X5X5X5X5X  c.x.x.  x.x.x.x.x.x.  x.x.x.x.x.x.x.x.x.x.x.x.x.x.x.x.  x.x.x.x.x.x.    g m m   5X5X5X5X5X5X",
"5X5X5X5X5X5X5X5X5X5X5X5X5X5X5X5X    x.x.    x.x.x.x.x.x.  x.x.x.x.x.x.x.x.x.x.x.x.x.x.x.x.x.  x.x.x.x.x.      k D     5X5X5X5X5X",
"5X5X5X5X5X5X5X5X5X5X5X5X5X5X5X    x.x.x.  x.x.x.x.x.x.x.  x.x.x.x.x.x.x.x.x.x.x.x.x.x.x.x.x.x.      x.x.  5X  h h z   5X5X5X5X5X",
"5X5X5X5X5X5X5X5X5X5X5X5X5X5X    x.x.x.    x.x.x.x.x.x.x.  x.x.x.x.x.x.x.x.x.x.x.x.x.x.x.x.x.x.  5X        5X    m V     5X5X5X5X",
"5X5X5X5X5X5X5X5X5X5X5X5X5X5X  c.x.x.x.  x.x.x.x.x.x.x.x.  x.x.x.x.x.x.x.x.x.x.x.x.x.x.x.x.x.x.x.  5X5X5X5X5X5X  n M b     5X5X5X",
"5X5X5X5X5X5X5X5X5X5X5X5X5X    l.x.x.    x.x.x.x.x.x.x.x.  x.x.x.x.x.x.x.x.x.x.x.x.x.x.x.x.x.x.x.l.  5X5X5X5X5X    b m h   5X5X5X",
"5X5X5X5X5X5X5X5X5X5X5X5X    f.x.x.x.  x.x.x.x.x.x.x.x.    x.x.x.x.x.x.x.x.x.x.x.x.x.x.x.x.x.x.x.x.    5X5X5X5X5X    m m     5X5X",
"5X5X5X5X5X5X5X5X5X5X5X    g.x.x.x.  x.x.x.x.x.x.x.x.    x.x.x.x.x.x.x.x.x.x.x.x.x.x.x.x.x.x.x.x.x.x.  5X5X5X5X5X5X  b m Z   5X5X",
"5X5X5X5X5X5X5X5X5X5X5X  5Xv.x.x.x.  x.x.x.x.        x.x.x.x.x.x.x.x.x.x.x.x.x.x.x.x.x.x.x.x.x.x.x.x.v.    5X5X5X5X    M m   5X5X",
"5X5X5X5X5X5X5X5X5X5X    x.k.x.x.  x.        x.x.x.x.x.x.x.x.x.x.x.x.x.x.x.x.x.x.x.x.x.x.x.x.x.x.x.x.k.x.    5X5X5X5X  f h     5X",
"5X5X5X5X5X5X5X5X5X    x.x.x.x.x.      x.x.x.x.x.x.x.x.x.x.x.x.x.x.x.x.x.x.x.x.x.x.x.x.x.x.x.x.x.x.x.x.x.x.  5X5X5X5X5X  h m   5X",
"5X5X5X5X5X5X5X5X    x.m.x.x.x.x.x.x.x.x.x.x.x.x.x.x.x.x.x.x.x.x.x.x.x.x.x.x.x.x.x.x.x.x.x.x.x.x.x.x.x.x.m.x.  5X5X5X5X  m m     ",
"5X5X5X5X5X5X5X5X  x.M.x.x.x.x.x.x.x.x.x.x.x.x.x.x.x.x.x.x.x.x.x.x.x.x.x.x.x.x.x.x.x.x.x.x.x.x.x.x.x.x.x.x.M.x.    5X5X5X  x M   ",
"5X5X5X5X5X5X5X  c.N.x.x.x.x.x.x.x.x.x.x.x.x.x.x.x.x.x.x.x.x.x.x.x.x.x.x.x.x.x.x.x.x.x.x.x.x.x.x.x.x.x.x.x.x.N.k.    5X5X  n g   ",
"5X5X5X5X5X    a.M.x.x.x.x.x.x.x.x.x.x.x.x.x.x.x.x.x.x.x.x.x.x.x.x.x.x.x.x.x.x.x.x.x.x.x.x.x.x.x.x.x.x.x.x.x.x.M.f.    5X5X  m   ",
"5X5X5X5X    x.m.x.x.x.x.x.x.x.x.x.x.x.x.x.x.x.x.x.x.x.x.x.x.x.x.x.x.x.x.x.x.x.x.x.x.x.x.x.x.x.x.x.x.x.x.x.x.x.x.m.x.    5X5X    ",
"5X5X      m.x.x.x.x.x.x.x.x.x.x.x.x.x.x.x.x.x.x.x.x.x.x.x.x.x.x.x.x.x.x.x.x.x.x.x.x.x.x.x.x.x.x.x.x.x.x.x.x.x.x.x.x.m.j.    5X5X",
"5X5X  c.x.x.x.x.x.x.x.x.x.x.x.x.x.x.x.x.x.x.x.x.x.x.x.x.x.x.x.x.x.x.x.x.x.x.x.x.x.x.x.x.x.x.x.x.x.x.x.x.x.x.x.x.x.x.x.x.x.  5X5X"
};
