/* XPM */
static char *result[] = {
/* columns rows colors chars-per-pixel */
"64 64 24 1 ",
"  c #D54CBF",
". c #D54DC1",
"X c #D84DC2",
"o c #D652C3",
"O c #D854C4",
"+ c #D758C5",
"@ c #D95BC6",
"# c #DA5EC8",
"$ c #DB64CA",
"% c #DD6CCC",
"& c #DF70CE",
"* c #DF75D0",
"= c #E072CF",
"- c #E076D1",
"; c #E17BD2",
": c #E485D7",
"> c #E587D8",
", c #E78BDA",
"< c #E992DC",
"1 c #EA98DE",
"2 c #EC9EE1",
"3 c #EEA5E4",
"4 c #EFA9E5",
"5 c None",
/* pixels */
"5555555555555555555555555555555555555555555555555555555555555555",
"555555555555555555555555555555555555555555OXXO..O555555555555555",
"55555555555555555555555555555555555555X.....X.O.OX55555555555555",
"555555555555555555555555555555555555........XX..XO55555555555555",
"5555555555555555555555555555555555.....X........XX55555555555555",
"555555555555555555555555555555555......X........O555555555555555",
"555555555555555555555555555555555X..............O555555555555555",
"55555555555555555555555555555555.X...............555555555555555",
"5555555555555555555555555555555........   . ....X555555555555555",
"555555555555555555555555555555X X...... X.......5555555555555555",
"55555555555555555555...555555....X.... ......X.X5555555555555555",
"5555555555555555555.oX..555...  ...... .....XXX555XXO55555555555",
"5555555555555555555.....55X.   ...............XX5XX...5555555555",
"5555555555555555555..Xo.55.X  X ........ XX. .X55OX..X5555555555",
"55555555555555555555.oX55...... .............. 55...OX5555555555",
"555555555555555555555555...... ......... ......555..O55555555555",
"555555555555555555555555...X....XX  ..X........55555555555555555",
"555555555555555555555555 .X......X .... .......55555555555555555",
"55555555555555555555555X..o .X..   .. ....X....55555555555555555",
"5555555555555555555555.. ...............  .X.X.55555555555555555",
"555555555555555555555 ... ...............   . .55555555555555555",
"55555555555555.o.555.. ................... .. ..5555555555555555",
"5555555555555......X...X..o............XX.. ... 5555555555555555",
"5555555555555oo.o..X.................... .. ....5555555555555555",
"5555555555555..... . ......... .................o555555555555555",
"55555555555555..........o. .. ............o.....X555555555555555",
"555555555555555oX....o... . ....................X555555555555555",
"5555555555555555 ..............o.................X55555555555555",
"5555555555555555. ..........oooo+.O..............X55555555555555",
"555555555555555....o......o+o++####+..............55555555555555",
"555555555555555 ...  ...o.++#$$$$$$##+O...........55555555555555",
"55555555555555.........oo++$$%%%&%%%%$#+Oo.....O...555oXO5555555",
"55555555555555.o... ...o+@$%&*****-&&%##+.....  ....o o...555555",
"55555555555555 ........+@$%&**;*;;;**&%##+oo.....  o......555555",
"5555555555555 ... ...oo+$%&*;;*:;;;;**-%$+oo. .....o..o...555555",
"5555555555555......  o+#$&**;:>>,,,,;**%$#oo......  .....5555555",
"5555555555555. .o. .oo+#%&;;::,<<<<>,***%$+o... o.. .55555555555",
"5555555555555........o+$&&;;,,122222,>**%$+o..... ..555555555555",
"5555555555555..X.....o+$&*;;,<2334322,:*%$+o.o......555555555555",
"555555555555X.......oo@$&*;;,<234442,<**%$#+. ......555555555555",
"55555555555....... .oo+$%-;;,<234432,>--&$@O........555555555555",
"5555555555.....o.....o+$%-;;,<2334322>;-%$@.........555555555555",
"555555555........ ....+$%%-;>,222222,:-=%#@.o........55555555555",
"555555555......... ..o+#%%-;;>,<2,<,:;*&$#OO.......X..5555555555",
"555555555.o.o ..  . ..o+$%&**:>,>>>>;*&$$@O............555555555",
"5555555555.....o.o o.oo+@$%&***;;-;**&&$@OO...........o.55555555",
"555555555555 ...... ...o+@$%****-*&&&&$#+O....... ...o.o55555555",
"55555555555555 o.. . ..Xo+@$$%%%&&%%$$@OO......o.o......55555555",
"555555555555555...o ....oo++##$$$$$##++oo........o.....555555555",
"5555555555555555..... .....o++++@@@++oo...... o...55555555555555",
"5555555555555555..... .....o.oooOooo..o ... .... 555555555555555",
"55555555555555555... ... ....o.o...o.. . ....o...555555555555555",
"555555555555555555.... ....o  ......... ....... 5555555555555555",
"5555555555555555555...o.  . .. ....... o...... 55555555555555555",
"55555555555555555555.....o. . ......    . . .5555555555555555555",
"555555555555555555555............... o...o. 55555555555555555555",
"55555555555555555555555Xo ..........X...Xo5555555555555555555555",
"5555555555555555555555555.... ........ .555555555555555555555555",
"5555555555555555555555555555.........555555555555555555555555555",
"5555555555555555555555555555555555555555555555555555555555555555",
"5555555555555555555555555555555555555555555555555555555555555555",
"5555555555555555555555555555555555555555555555555555555555555555",
"5555555555555555555555555555555555555555555555555555555555555555",
"5555555555555555555555555555555555555555555555555555555555555555"
};
